# xmcd
#
# Track frame offsets:
#       150
#       15177
#       25221
#       51576
#       76308
#       93972
#       120258
#       143621
#       166008
#       183008
#       195976
#       207989
#       223762
#       243812
#       264812
#       285512
#       309927
#       321521
#
# Disc length: 4492 seconds
#
# Revision: 1
# Processed by: cddbd v1.4PL0 Copyright (c) Steve Scherf et al.
# Submitted via: MusiCat 1.1
#
DISCID=de118a12
DTITLE=The Clash - Sandinista [CD2]
DYEAR=1900
DGENRE=
TTITLE0=Police On My Back
TTITLE1=Midnight Log
TTITLE2=The Equaliser
TTITLE3=The Call Up
TTITLE4=Washington Bullets
TTITLE5=Broadway
TTITLE6=Lose This Skin
TTITLE7=Charlie Don't Surf
TTITLE8=Mensforth Hill
TTITLE9=Junkie Slip
TTITLE10=Kingston Advice
TTITLE11=The Street Parade
TTITLE12=Version City
TTITLE13=Living In Fame
TTITLE14=Silicone On Spahire
TTITLE15=Version Pardner
TTITLE16=Career Opportunities
TTITLE17=Shepherds Delight
EXTD=\n\n
EXTT0=
EXTT1=
EXTT2=
EXTT3=
EXTT4=
EXTT5=
EXTT6=
EXTT7=
EXTT8=
EXTT9=
EXTT10=
EXTT11=
EXTT12=
EXTT13=
EXTT14=
EXTT15=
EXTT16=
EXTT17=
PLAYORDER=
